<mxfile host="app.diagrams.net" modified="2023-08-03T13:21:15.042Z" agent="Mozilla/5.0 (Windows NT 10.0; Win64; x64) AppleWebKit/537.36 (KHTML, like Gecko) Chrome/115.0.0.0 Safari/537.36" etag="MXcaQg740Lpeb2pLRG5X" version="21.6.6" type="github">
  <diagram name="第 1 页" id="dt1ydbLvdWKdi6ZFMIxa">
    <mxGraphModel dx="1509" dy="832" grid="1" gridSize="10" guides="1" tooltips="1" connect="1" arrows="1" fold="1" page="1" pageScale="1" pageWidth="827" pageHeight="1169" math="0" shadow="0">
      <root>
        <mxCell id="0" />
        <mxCell id="1" parent="0" />
        <mxCell id="iBdUKiKmWNrFC63WjBEQ-3" value="login.py(登录模块)" style="swimlane;whiteSpace=wrap;html=1;rounded=0;labelBackgroundColor=none;" parent="1" vertex="1">
          <mxGeometry x="40" y="130" width="340" height="360" as="geometry" />
        </mxCell>
        <mxCell id="iBdUKiKmWNrFC63WjBEQ-4" value="&lt;div style=&quot;color: rgb(204, 204, 204); background-color: rgb(31, 31, 31); font-family: Consolas, &amp;quot;Courier New&amp;quot;, monospace; font-size: 14px; line-height: 19px;&quot;&gt;Login_dialog &lt;span style=&quot;color: #d4d4d4;&quot;&gt;=&lt;/span&gt; &lt;span style=&quot;color: #4ec9b0;&quot;&gt;Login_dialog&lt;/span&gt;()&lt;/div&gt;" style="text;html=1;align=center;verticalAlign=middle;resizable=0;points=[];autosize=1;strokeColor=none;fillColor=none;rounded=0;labelBackgroundColor=none;" parent="iBdUKiKmWNrFC63WjBEQ-3" vertex="1">
          <mxGeometry x="40" y="40" width="250" height="30" as="geometry" />
        </mxCell>
        <mxCell id="iBdUKiKmWNrFC63WjBEQ-6" value="创建login单实例" style="text;html=1;align=center;verticalAlign=middle;resizable=0;points=[];autosize=1;strokeColor=none;fillColor=none;rounded=0;labelBackgroundColor=none;" parent="iBdUKiKmWNrFC63WjBEQ-3" vertex="1">
          <mxGeometry x="110" y="60" width="110" height="30" as="geometry" />
        </mxCell>
        <mxCell id="pdhDMb10vHC7tpRMdVxu-9" value="" style="edgeStyle=orthogonalEdgeStyle;rounded=0;orthogonalLoop=1;jettySize=auto;html=1;labelBackgroundColor=none;fontColor=default;" edge="1" parent="iBdUKiKmWNrFC63WjBEQ-3" source="iBdUKiKmWNrFC63WjBEQ-7" target="pdhDMb10vHC7tpRMdVxu-3">
          <mxGeometry relative="1" as="geometry" />
        </mxCell>
        <mxCell id="iBdUKiKmWNrFC63WjBEQ-7" value="&lt;div style=&quot;color: rgb(204, 204, 204); background-color: rgb(31, 31, 31); font-family: Consolas, &amp;quot;Courier New&amp;quot;, monospace; font-size: 14px; line-height: 19px;&quot;&gt;account_check(&lt;span style=&quot;color: #9cdcfe;&quot;&gt;self&lt;/span&gt;):&lt;/div&gt;" style="text;html=1;align=center;verticalAlign=middle;resizable=0;points=[];autosize=1;strokeColor=none;fillColor=none;rounded=0;labelBackgroundColor=none;" parent="iBdUKiKmWNrFC63WjBEQ-3" vertex="1">
          <mxGeometry x="75" y="190" width="180" height="30" as="geometry" />
        </mxCell>
        <mxCell id="pdhDMb10vHC7tpRMdVxu-8" value="" style="edgeStyle=orthogonalEdgeStyle;rounded=0;orthogonalLoop=1;jettySize=auto;html=1;labelBackgroundColor=none;fontColor=default;" edge="1" parent="iBdUKiKmWNrFC63WjBEQ-3">
          <mxGeometry relative="1" as="geometry">
            <mxPoint x="159.58" y="111.99999999999989" as="sourcePoint" />
            <mxPoint x="159.58" y="190" as="targetPoint" />
          </mxGeometry>
        </mxCell>
        <mxCell id="iBdUKiKmWNrFC63WjBEQ-15" value="&lt;div style=&quot;color: rgb(204, 204, 204); background-color: rgb(31, 31, 31); font-family: Consolas, &amp;quot;Courier New&amp;quot;, monospace; font-size: 14px; line-height: 19px;&quot;&gt;account_login&lt;/div&gt;" style="text;html=1;align=center;verticalAlign=middle;resizable=0;points=[];autosize=1;strokeColor=none;fillColor=none;rounded=0;labelBackgroundColor=none;" parent="iBdUKiKmWNrFC63WjBEQ-3" vertex="1">
          <mxGeometry x="100" y="120" width="120" height="30" as="geometry" />
        </mxCell>
        <mxCell id="pdhDMb10vHC7tpRMdVxu-3" value="main_window = MyWindow()&lt;br&gt;&lt;div style=&quot;color: rgb(204, 204, 204); background-color: rgb(31, 31, 31); font-family: Consolas, &amp;quot;Courier New&amp;quot;, monospace; font-size: 14px; line-height: 19px;&quot;&gt;main_window.show()&lt;/div&gt;" style="text;html=1;align=center;verticalAlign=middle;resizable=0;points=[];autosize=1;strokeColor=none;fillColor=none;rounded=0;labelBackgroundColor=none;" vertex="1" parent="iBdUKiKmWNrFC63WjBEQ-3">
          <mxGeometry x="75" y="260" width="180" height="50" as="geometry" />
        </mxCell>
        <mxCell id="pdhDMb10vHC7tpRMdVxu-5" value="" style="edgeStyle=orthogonalEdgeStyle;rounded=0;orthogonalLoop=1;jettySize=auto;html=1;labelBackgroundColor=none;fontColor=default;" edge="1" parent="iBdUKiKmWNrFC63WjBEQ-3" source="pdhDMb10vHC7tpRMdVxu-4" target="iBdUKiKmWNrFC63WjBEQ-15">
          <mxGeometry relative="1" as="geometry" />
        </mxCell>
        <mxCell id="pdhDMb10vHC7tpRMdVxu-4" value="登录BT" style="rounded=0;whiteSpace=wrap;html=1;labelBackgroundColor=none;" vertex="1" parent="iBdUKiKmWNrFC63WjBEQ-3">
          <mxGeometry x="10" y="120" width="60" height="20" as="geometry" />
        </mxCell>
        <mxCell id="pdhDMb10vHC7tpRMdVxu-10" value="main.py()主窗口模块" style="swimlane;whiteSpace=wrap;html=1;rounded=0;labelBackgroundColor=none;" vertex="1" parent="1">
          <mxGeometry x="414" y="180" width="900" height="650" as="geometry" />
        </mxCell>
        <mxCell id="pdhDMb10vHC7tpRMdVxu-16" value="" style="edgeStyle=orthogonalEdgeStyle;rounded=0;orthogonalLoop=1;jettySize=auto;html=1;labelBackgroundColor=none;fontColor=default;" edge="1" parent="pdhDMb10vHC7tpRMdVxu-10" source="pdhDMb10vHC7tpRMdVxu-13" target="pdhDMb10vHC7tpRMdVxu-15">
          <mxGeometry relative="1" as="geometry" />
        </mxCell>
        <mxCell id="pdhDMb10vHC7tpRMdVxu-13" value="开始测试按钮" style="rounded=0;whiteSpace=wrap;html=1;labelBackgroundColor=none;" vertex="1" parent="pdhDMb10vHC7tpRMdVxu-10">
          <mxGeometry x="30" y="272.5" width="80" height="37.5" as="geometry" />
        </mxCell>
        <mxCell id="pdhDMb10vHC7tpRMdVxu-14" value="扫码枪" style="rounded=0;whiteSpace=wrap;html=1;labelBackgroundColor=none;" vertex="1" parent="pdhDMb10vHC7tpRMdVxu-10">
          <mxGeometry x="30" y="122.5" width="80" height="37.5" as="geometry" />
        </mxCell>
        <mxCell id="pdhDMb10vHC7tpRMdVxu-15" value="&lt;div style=&quot;color: rgb(204, 204, 204); background-color: rgb(31, 31, 31); font-family: Consolas, &amp;quot;Courier New&amp;quot;, monospace; font-size: 20px; line-height: 19px;&quot;&gt;start_test(&lt;span style=&quot;color: #9cdcfe;&quot;&gt;self&lt;/span&gt;, &lt;span style=&quot;color: #9cdcfe;&quot;&gt;scan_sn&lt;/span&gt;&lt;span style=&quot;color: #d4d4d4;&quot;&gt;=&lt;/span&gt;&lt;span style=&quot;color: #569cd6;&quot;&gt;None&lt;/span&gt;): &amp;nbsp;&lt;span style=&quot;color: #6a9955;&quot;&gt;# 开始 测试&lt;/span&gt;&lt;/div&gt;" style="text;html=1;align=center;verticalAlign=middle;resizable=0;points=[];autosize=1;strokeColor=none;fillColor=none;rounded=0;labelBackgroundColor=none;" vertex="1" parent="pdhDMb10vHC7tpRMdVxu-10">
          <mxGeometry x="140" y="276.25" width="500" height="30" as="geometry" />
        </mxCell>
        <mxCell id="pdhDMb10vHC7tpRMdVxu-19" value="&lt;div style=&quot;color: rgb(204, 204, 204); background-color: rgb(31, 31, 31); font-family: Consolas, &amp;quot;Courier New&amp;quot;, monospace; font-size: 14px; line-height: 19px;&quot;&gt;get_current_com&lt;/div&gt;" style="text;html=1;align=center;verticalAlign=middle;resizable=0;points=[];autosize=1;strokeColor=none;fillColor=none;" vertex="1" parent="pdhDMb10vHC7tpRMdVxu-10">
          <mxGeometry x="270" y="332.5" width="140" height="30" as="geometry" />
        </mxCell>
        <mxCell id="pdhDMb10vHC7tpRMdVxu-22" value="&#xa;&lt;div style=&quot;color: rgb(204, 204, 204); background-color: rgb(31, 31, 31); font-family: Consolas, &amp;quot;Courier New&amp;quot;, monospace; font-weight: normal; font-size: 14px; line-height: 19px;&quot;&gt;&lt;div&gt;&lt;span style=&quot;color: #9cdcfe;&quot;&gt;self&lt;/span&gt;&lt;span style=&quot;color: #cccccc;&quot;&gt;.&lt;/span&gt;&lt;span style=&quot;color: #dcdcaa;&quot;&gt;import_item&lt;/span&gt;&lt;span style=&quot;color: #cccccc;&quot;&gt;(&lt;/span&gt;&lt;span style=&quot;color: #9cdcfe;&quot;&gt;self&lt;/span&gt;&lt;span style=&quot;color: #cccccc;&quot;&gt;.&lt;/span&gt;&lt;span style=&quot;color: #9cdcfe;&quot;&gt;test_version&lt;/span&gt;&lt;span style=&quot;color: #cccccc;&quot;&gt;, &lt;/span&gt;&lt;span style=&quot;color: #9cdcfe;&quot;&gt;self&lt;/span&gt;&lt;span style=&quot;color: #cccccc;&quot;&gt;.&lt;/span&gt;&lt;span style=&quot;color: #9cdcfe;&quot;&gt;prj_station&lt;/span&gt;&lt;span style=&quot;color: #cccccc;&quot;&gt;, &lt;/span&gt;&lt;span style=&quot;color: #9cdcfe;&quot;&gt;scan_sn&lt;/span&gt;&lt;span style=&quot;color: #cccccc;&quot;&gt;)&lt;/span&gt;&lt;/div&gt;&lt;/div&gt;&#xa;&#xa;" style="text;html=1;align=center;verticalAlign=middle;resizable=0;points=[];autosize=1;strokeColor=none;fillColor=none;" vertex="1" parent="pdhDMb10vHC7tpRMdVxu-10">
          <mxGeometry x="110" y="367.5" width="500" height="80" as="geometry" />
        </mxCell>
        <mxCell id="pdhDMb10vHC7tpRMdVxu-23" value="获取串口" style="text;html=1;align=center;verticalAlign=middle;resizable=0;points=[];autosize=1;strokeColor=none;fillColor=none;" vertex="1" parent="pdhDMb10vHC7tpRMdVxu-10">
          <mxGeometry x="430" y="332.5" width="70" height="30" as="geometry" />
        </mxCell>
        <mxCell id="pdhDMb10vHC7tpRMdVxu-37" style="edgeStyle=orthogonalEdgeStyle;rounded=1;orthogonalLoop=1;jettySize=auto;html=1;" edge="1" parent="pdhDMb10vHC7tpRMdVxu-10" source="pdhDMb10vHC7tpRMdVxu-24">
          <mxGeometry relative="1" as="geometry">
            <mxPoint x="736.0000000000005" y="350" as="targetPoint" />
          </mxGeometry>
        </mxCell>
        <mxCell id="pdhDMb10vHC7tpRMdVxu-24" value="导入测试项" style="text;html=1;align=center;verticalAlign=middle;resizable=0;points=[];autosize=1;strokeColor=none;fillColor=none;" vertex="1" parent="pdhDMb10vHC7tpRMdVxu-10">
          <mxGeometry x="610" y="390" width="80" height="30" as="geometry" />
        </mxCell>
        <mxCell id="pdhDMb10vHC7tpRMdVxu-27" value="&lt;div style=&quot;color: rgb(204, 204, 204); font-family: Consolas, &amp;quot;Courier New&amp;quot;, monospace; font-size: 14px; line-height: 19px; background-color: rgb(31, 31, 31);&quot;&gt;&lt;div&gt;self.&lt;span style=&quot;color: #9cdcfe;&quot;&gt;t&lt;/span&gt; &lt;span style=&quot;color: #d4d4d4;&quot;&gt;=&lt;/span&gt; &lt;span style=&quot;color: #4ec9b0;&quot;&gt;iv_serial&lt;/span&gt;.&lt;span style=&quot;color: #dcdcaa;&quot;&gt;start_test&lt;/span&gt;(&lt;span style=&quot;color: #9cdcfe;&quot;&gt;self&lt;/span&gt;.&lt;span style=&quot;color: #9cdcfe;&quot;&gt;device_sn&lt;/span&gt;, &lt;span style=&quot;color: #9cdcfe;&quot;&gt;self&lt;/span&gt;.&lt;span style=&quot;color: #9cdcfe;&quot;&gt;cases&lt;/span&gt;, &lt;span style=&quot;color: #9cdcfe;&quot;&gt;self&lt;/span&gt;.&lt;span style=&quot;color: #9cdcfe;&quot;&gt;stop_at_err&lt;/span&gt;, &lt;span style=&quot;color: #9cdcfe;&quot;&gt;self&lt;/span&gt;.&lt;span style=&quot;color: #9cdcfe;&quot;&gt;main_com&lt;/span&gt;, &lt;span style=&quot;color: #9cdcfe;&quot;&gt;self&lt;/span&gt;.&lt;span style=&quot;color: #9cdcfe;&quot;&gt;second_com&lt;/span&gt;,&lt;/div&gt;&lt;div&gt;&amp;nbsp; &amp;nbsp; &amp;nbsp; &amp;nbsp; &amp;nbsp; &amp;nbsp; &amp;nbsp; &amp;nbsp; &amp;nbsp; &amp;nbsp; &amp;nbsp; &amp;nbsp; &amp;nbsp; &amp;nbsp; &amp;nbsp; &amp;nbsp; &amp;nbsp; &amp;nbsp; &amp;nbsp; &amp;nbsp; &amp;nbsp; &amp;nbsp; &lt;span style=&quot;color: #9cdcfe;&quot;&gt;callback&lt;/span&gt;&lt;span style=&quot;color: #d4d4d4;&quot;&gt;=&lt;/span&gt;&lt;span style=&quot;color: #9cdcfe;&quot;&gt;self&lt;/span&gt;.&lt;span style=&quot;color: #dcdcaa;&quot;&gt;usb_event_callback&lt;/span&gt;, &lt;span style=&quot;color: #9cdcfe;&quot;&gt;timeout&lt;/span&gt;&lt;span style=&quot;color: #d4d4d4;&quot;&gt;=&lt;/span&gt;&lt;span style=&quot;color: #9cdcfe;&quot;&gt;self&lt;/span&gt;.&lt;span style=&quot;color: #9cdcfe;&quot;&gt;task_timeout&lt;/span&gt;,&lt;/div&gt;&lt;div&gt;&amp;nbsp; &amp;nbsp; &amp;nbsp; &amp;nbsp; &amp;nbsp; &amp;nbsp; &amp;nbsp; &amp;nbsp; &amp;nbsp; &amp;nbsp; &amp;nbsp; &amp;nbsp; &amp;nbsp; &amp;nbsp; &amp;nbsp; &amp;nbsp; &amp;nbsp; &amp;nbsp; &amp;nbsp; &amp;nbsp; &amp;nbsp; &amp;nbsp; &lt;span style=&quot;color: #9cdcfe;&quot;&gt;_host&lt;/span&gt;&lt;span style=&quot;color: #d4d4d4;&quot;&gt;=&lt;/span&gt;&lt;span style=&quot;color: #9cdcfe;&quot;&gt;self&lt;/span&gt;.&lt;span style=&quot;color: #9cdcfe;&quot;&gt;host&lt;/span&gt;, &lt;span style=&quot;color: #9cdcfe;&quot;&gt;order&lt;/span&gt;&lt;span style=&quot;color: #d4d4d4;&quot;&gt;=&lt;/span&gt;&lt;span style=&quot;color: #9cdcfe;&quot;&gt;self&lt;/span&gt;.&lt;span style=&quot;color: #9cdcfe;&quot;&gt;order_num&lt;/span&gt;, &lt;span style=&quot;color: #9cdcfe;&quot;&gt;power_set&lt;/span&gt;&lt;span style=&quot;color: #d4d4d4;&quot;&gt;=&lt;/span&gt;&lt;span style=&quot;color: #9cdcfe;&quot;&gt;self&lt;/span&gt;.&lt;span style=&quot;color: #9cdcfe;&quot;&gt;power_set&lt;/span&gt;,&lt;/div&gt;&lt;div&gt;&amp;nbsp; &amp;nbsp; &amp;nbsp; &amp;nbsp; &amp;nbsp; &amp;nbsp; &amp;nbsp; &amp;nbsp; &amp;nbsp; &amp;nbsp; &amp;nbsp; &amp;nbsp; &amp;nbsp; &amp;nbsp; &amp;nbsp; &amp;nbsp; &amp;nbsp; &amp;nbsp; &amp;nbsp; &amp;nbsp; &amp;nbsp; &amp;nbsp; &lt;span style=&quot;color: #9cdcfe;&quot;&gt;electrical_source&lt;/span&gt;&lt;span style=&quot;color: #d4d4d4;&quot;&gt;=&lt;/span&gt;&lt;span style=&quot;color: #9cdcfe;&quot;&gt;self&lt;/span&gt;.&lt;span style=&quot;color: #9cdcfe;&quot;&gt;electrical_source&lt;/span&gt;)&lt;/div&gt;&lt;/div&gt;" style="text;html=1;align=center;verticalAlign=middle;resizable=0;points=[];autosize=1;" vertex="1" parent="pdhDMb10vHC7tpRMdVxu-10">
          <mxGeometry x="30" y="510" width="850" height="90" as="geometry" />
        </mxCell>
        <mxCell id="pdhDMb10vHC7tpRMdVxu-40" style="edgeStyle=orthogonalEdgeStyle;rounded=1;orthogonalLoop=1;jettySize=auto;html=1;" edge="1" parent="pdhDMb10vHC7tpRMdVxu-10" source="pdhDMb10vHC7tpRMdVxu-38" target="pdhDMb10vHC7tpRMdVxu-27">
          <mxGeometry relative="1" as="geometry" />
        </mxCell>
        <mxCell id="pdhDMb10vHC7tpRMdVxu-38" value="self.cases = [{case},{case}]" style="whiteSpace=wrap;html=1;rounded=1;" vertex="1" parent="pdhDMb10vHC7tpRMdVxu-10">
          <mxGeometry x="716" y="180" width="124" height="150" as="geometry" />
        </mxCell>
        <mxCell id="pdhDMb10vHC7tpRMdVxu-11" value="" style="endArrow=classic;html=1;rounded=0;exitX=1.028;exitY=0.5;exitDx=0;exitDy=0;exitPerimeter=0;entryX=0;entryY=0.75;entryDx=0;entryDy=0;labelBackgroundColor=none;fontColor=default;" edge="1" parent="1" source="pdhDMb10vHC7tpRMdVxu-3" target="pdhDMb10vHC7tpRMdVxu-10">
          <mxGeometry width="50" height="50" relative="1" as="geometry">
            <mxPoint x="340" y="330" as="sourcePoint" />
            <mxPoint x="430" y="170" as="targetPoint" />
          </mxGeometry>
        </mxCell>
        <mxCell id="pdhDMb10vHC7tpRMdVxu-26" value="&lt;div style=&quot;color: rgb(204, 204, 204); background-color: rgb(31, 31, 31); font-family: Consolas, &amp;quot;Courier New&amp;quot;, monospace; font-size: 14px; line-height: 19px;&quot;&gt;&lt;br&gt;&lt;/div&gt;" style="text;html=1;align=center;verticalAlign=middle;resizable=0;points=[];autosize=1;strokeColor=none;fillColor=none;" vertex="1" parent="1">
          <mxGeometry x="750" y="578" width="20" height="30" as="geometry" />
        </mxCell>
        <mxCell id="pdhDMb10vHC7tpRMdVxu-28" style="edgeStyle=orthogonalEdgeStyle;rounded=1;orthogonalLoop=1;jettySize=auto;html=1;entryX=0;entryY=0.75;entryDx=0;entryDy=0;" edge="1" parent="1" source="pdhDMb10vHC7tpRMdVxu-27" target="pdhDMb10vHC7tpRMdVxu-29">
          <mxGeometry relative="1" as="geometry">
            <mxPoint x="1170" y="490" as="targetPoint" />
          </mxGeometry>
        </mxCell>
        <mxCell id="pdhDMb10vHC7tpRMdVxu-29" value="iv_serial.py" style="swimlane;whiteSpace=wrap;html=1;rounded=1;" vertex="1" parent="1">
          <mxGeometry x="1460" y="390" width="290" height="292" as="geometry" />
        </mxCell>
        <mxCell id="pdhDMb10vHC7tpRMdVxu-30" value="开启测试线程" style="text;html=1;align=center;verticalAlign=middle;resizable=0;points=[];autosize=1;strokeColor=none;fillColor=none;" vertex="1" parent="pdhDMb10vHC7tpRMdVxu-29">
          <mxGeometry x="60" y="42" width="100" height="30" as="geometry" />
        </mxCell>
        <mxCell id="pdhDMb10vHC7tpRMdVxu-31" value="&lt;div style=&quot;color: rgb(204, 204, 204); background-color: rgb(31, 31, 31); font-family: Consolas, &amp;quot;Courier New&amp;quot;, monospace; font-size: 14px; line-height: 19px;&quot;&gt;t&lt;span style=&quot;&quot;&gt; &lt;/span&gt;&lt;span style=&quot;color: rgb(212, 212, 212);&quot;&gt;=&lt;/span&gt;&lt;span style=&quot;&quot;&gt; &lt;/span&gt;&lt;span style=&quot;color: rgb(78, 201, 176);&quot;&gt;TestThread&lt;/span&gt;()&amp;nbsp;return&lt;span style=&quot;&quot;&gt; &lt;/span&gt;&lt;span style=&quot;color: rgb(156, 220, 254);&quot;&gt;t&lt;/span&gt;&lt;/div&gt;" style="text;html=1;align=center;verticalAlign=middle;resizable=0;points=[];autosize=1;strokeColor=none;fillColor=none;" vertex="1" parent="pdhDMb10vHC7tpRMdVxu-29">
          <mxGeometry x="6" y="77" width="220" height="30" as="geometry" />
        </mxCell>
        <mxCell id="pdhDMb10vHC7tpRMdVxu-32" value="线程002" style="swimlane;fontStyle=0;childLayout=stackLayout;horizontal=1;startSize=30;horizontalStack=0;resizeParent=1;resizeParentMax=0;resizeLast=0;collapsible=1;marginBottom=0;whiteSpace=wrap;html=1;rounded=1;" vertex="1" parent="1">
          <mxGeometry x="1740" y="140" width="270" height="120" as="geometry" />
        </mxCell>
        <mxCell id="pdhDMb10vHC7tpRMdVxu-33" value="Item 1" style="text;strokeColor=none;fillColor=none;align=left;verticalAlign=middle;spacingLeft=4;spacingRight=4;overflow=hidden;points=[[0,0.5],[1,0.5]];portConstraint=eastwest;rotatable=0;whiteSpace=wrap;html=1;" vertex="1" parent="pdhDMb10vHC7tpRMdVxu-32">
          <mxGeometry y="30" width="270" height="30" as="geometry" />
        </mxCell>
        <mxCell id="pdhDMb10vHC7tpRMdVxu-34" value="Item 2" style="text;strokeColor=none;fillColor=none;align=left;verticalAlign=middle;spacingLeft=4;spacingRight=4;overflow=hidden;points=[[0,0.5],[1,0.5]];portConstraint=eastwest;rotatable=0;whiteSpace=wrap;html=1;" vertex="1" parent="pdhDMb10vHC7tpRMdVxu-32">
          <mxGeometry y="60" width="270" height="30" as="geometry" />
        </mxCell>
        <mxCell id="pdhDMb10vHC7tpRMdVxu-35" value="Item 3" style="text;strokeColor=none;fillColor=none;align=left;verticalAlign=middle;spacingLeft=4;spacingRight=4;overflow=hidden;points=[[0,0.5],[1,0.5]];portConstraint=eastwest;rotatable=0;whiteSpace=wrap;html=1;" vertex="1" parent="pdhDMb10vHC7tpRMdVxu-32">
          <mxGeometry y="90" width="270" height="30" as="geometry" />
        </mxCell>
        <mxCell id="pdhDMb10vHC7tpRMdVxu-41" style="edgeStyle=orthogonalEdgeStyle;rounded=1;orthogonalLoop=1;jettySize=auto;html=1;entryX=0;entryY=0.5;entryDx=0;entryDy=0;" edge="1" parent="1" source="pdhDMb10vHC7tpRMdVxu-31" target="pdhDMb10vHC7tpRMdVxu-34">
          <mxGeometry relative="1" as="geometry">
            <mxPoint x="1930" y="310" as="targetPoint" />
          </mxGeometry>
        </mxCell>
      </root>
    </mxGraphModel>
  </diagram>
</mxfile>
